<?xml version="1.0" encoding="UTF-8" standalone="no"?>
<svg width="322px" height="227px" viewBox="0 0 322 227" version="1.1" xmlns="http://www.w3.org/2000/svg" xmlns:xlink="http://www.w3.org/1999/xlink" xmlns:sketch="http://www.bohemiancoding.com/sketch/ns">
    <!-- Generator: Sketch 3.0.1 (7597) - http://www.bohemiancoding.com/sketch -->
    <title>background</title>
    <description>Created with Sketch.</description>
    <defs></defs>
    <g id="Page-1" stroke="none" stroke-width="1" fill="none" fill-rule="evenodd" sketch:type="MSPage">
        <path d="M117.779495,106 L153.110253,70.6661516 L188.444101,106 L153.110253,141.333848 L117.779495,106 Z M106.001545,188.445646 L70.6676967,153.111798 L106.001545,117.777949 L141.333848,153.111798 L106.001545,188.445646 Z M23.5558989,106 L58.8897473,70.6661516 L94.2235956,106 L58.8897473,141.333848 L23.5558989,106 Z M106.001545,23.5558989 L141.333848,58.8897473 L106.001545,94.2220505 L70.6676967,58.8882022 L106.001545,23.5558989 Z M106.001545,0 L0.00154505437,106 L106.001545,212 L212,106 L106.001545,0 Z" id="Fill-1" fill="#DBE0DF" sketch:type="MSShapeGroup"></path>
        <path d="M207.027344,139.558594 C198.804688,129.941406 192.484375,122.023437 178.824219,122.023438 C165.164062,122.023438 152.287109,128.380859 142.578125,137.90625 C132.869141,147.431641 124.852539,156.039062 116.663086,156.039062 C113.373047,156.039062 105.860351,154.050781 105.860351,147.494141 C105.860351,140.9375 109.6875,139.3125 111.754883,139.3125 C113.822266,139.3125 115.913086,144.319336 115.12793,147.494141 C117.727539,144.319336 120.773437,142.807617 119.511719,137.90625 C118.25,133.004883 115.249023,129.994141 108.547852,129.994141 C101.84668,129.994141 89.8232422,135.783203 91.0644531,151.733398 C92.3056641,167.683594 100.920899,177.910156 122.986328,177.910156 C145.051758,177.910156 183.47168,152.526367 207.092773,152.526367 C230.713867,152.526367 215.25,149.175781 207.027344,139.558594 Z" id="Path-6" fill="#C322BD" sketch:type="MSShapeGroup"></path>
        <path d="M309.027344,139.558594 C300.804688,129.941406 294.484375,122.023437 280.824219,122.023438 C267.164062,122.023438 254.287109,128.380859 244.578125,137.90625 C234.869141,147.431641 226.852539,156.039062 218.663086,156.039062 C215.373047,156.039062 207.860351,154.050781 207.860351,147.494141 C207.860351,140.9375 211.6875,139.3125 213.754883,139.3125 C215.822266,139.3125 217.913086,144.319336 217.12793,147.494141 C219.727539,144.319336 222.773437,142.807617 221.511719,137.90625 C220.25,133.004883 217.249023,129.994141 210.547852,129.994141 C203.84668,129.994141 191.823242,135.783203 193.064453,151.733398 C194.305664,167.683594 202.920899,177.910156 224.986328,177.910156 C247.051758,177.910156 285.47168,152.526367 309.092773,152.526367 C332.713867,152.526367 317.25,149.175781 309.027344,139.558594 Z" id="Path-7" fill="#C322BD" sketch:type="MSShapeGroup" transform="translate(257.500000, 150.000000) scale(-1, 1) translate(-257.500000, -150.000000) "></path>
        <rect id="Rectangle-1" fill="#C322BD" sketch:type="MSShapeGroup" x="201" y="148" width="11" height="79"></rect>
    </g>
</svg>