<?xml version="1.0" encoding="UTF-8" standalone="no"?>
<svg width="233px" height="242px" viewBox="0 0 233 242" version="1.1" xmlns="http://www.w3.org/2000/svg" xmlns:xlink="http://www.w3.org/1999/xlink" xmlns:sketch="http://www.bohemiancoding.com/sketch/ns">
    <!-- Generator: Sketch 3.0.4 (8053) - http://www.bohemiancoding.com/sketch -->
    <title>background</title>
    <desc>Created with Sketch.</desc>
    <defs></defs>
    <g id="Page-1" stroke="none" stroke-width="1" fill="none" fill-rule="evenodd" sketch:type="MSPage">
        <g id="background" sketch:type="MSLayerGroup" transform="translate(1.000000, 0.000000)">
            <g id="Page-1" sketch:type="MSShapeGroup">
                <path d="M127.27795,106 L162.608708,70.6661516 L197.942556,106 L162.608708,141.333848 L127.27795,106 L127.27795,106 Z M115.5,188.445646 L80.1661516,153.111798 L115.5,117.777949 L150.832303,153.111798 L115.5,188.445646 L115.5,188.445646 Z M33.0543538,106 L68.3882022,70.6661516 L103.722051,106 L68.3882022,141.333848 L33.0543538,106 L33.0543538,106 Z M115.5,23.5558989 L150.832303,58.8897473 L115.5,94.2220505 L80.1661516,58.8882022 L115.5,23.5558989 L115.5,23.5558989 Z M115.5,0 L9.5,106 L115.5,212 L221.498455,106 L115.5,0 L115.5,0 Z" id="Fill-1" fill="#FF96B5"></path>
                <path d="M116.027344,154.558594 C107.804688,144.941406 101.484375,137.023437 87.824219,137.023438 C74.164062,137.023438 61.287109,143.380859 51.578125,152.90625 C41.869141,162.431641 33.852539,171.039062 25.663086,171.039062 C22.373047,171.039062 14.860351,169.050781 14.860351,162.494141 C14.860351,155.9375 18.6875,154.3125 20.754883,154.3125 C22.822266,154.3125 24.913086,159.319336 24.12793,162.494141 C26.727539,159.319336 29.773437,157.807617 28.511719,152.90625 C27.25,148.004883 24.249023,144.994141 17.547852,144.994141 C10.84668,144.994141 -1.1767578,150.783203 0.0644531,166.733398 C1.3056641,182.683594 9.920899,192.910156 31.986328,192.910156 C54.051758,192.910156 92.47168,167.526367 116.092773,167.526367 C139.713867,167.526367 124.25,164.175781 116.027344,154.558594 L116.027344,154.558594 Z" id="Path-6" fill="#CA1B6E"></path>
                <path d="M218.076661,154.558594 C209.854005,144.941406 203.533692,137.023437 189.873536,137.023438 C176.213379,137.023438 163.336426,143.380859 153.627442,152.90625 C143.918458,162.431641 135.901856,171.039062 127.712403,171.039062 C124.422364,171.039062 116.909668,169.050781 116.909668,162.494141 C116.909668,155.9375 120.736817,154.3125 122.8042,154.3125 C124.871583,154.3125 126.962403,159.319336 126.177247,162.494141 C128.776856,159.319336 131.822754,157.807617 130.561036,152.90625 C129.299317,148.004883 126.29834,144.994141 119.597169,144.994141 C112.895997,144.994141 100.872559,150.783203 102.11377,166.733398 C103.354981,182.683594 111.970216,192.910156 134.035645,192.910156 C156.101075,192.910156 194.520997,167.526367 218.14209,167.526367 C241.763184,167.526367 226.299317,164.175781 218.076661,154.558594 L218.076661,154.558594 Z" id="Path-7" fill="#CA1B6E" transform="translate(166.524659, 165.023438) scale(-1, 1) translate(-166.524659, -165.023438) "></path>
                <rect id="Rectangle-1" fill="#CA1B6E" x="110" y="163" width="11" height="79"></rect>
            </g>
        </g>
    </g>
</svg>